<svg xmlns="http://www.w3.org/2000/svg" xmlns:xlink="http://www.w3.org/1999/xlink" viewBox="0,0,256,256" width="48px" height="48px" fill-rule="nonzero"><g fill="#d4af37" fill-rule="nonzero" stroke="none" stroke-width="1" stroke-linecap="butt" stroke-linejoin="miter" stroke-miterlimit="10" stroke-dasharray="" stroke-dashoffset="0" font-family="none" font-weight="none" font-size="none" text-anchor="none" style="mix-blend-mode: normal"><g transform="scale(5.33333,5.33333)"><path d="M38.70703,3.00195c-0.001,0 -29.58008,1.8457 -29.58008,1.8457c-1.1131,0.06978 -2.02094,1.06188 -1.98047,2.18164c0,0.0013 0,0.0026 0,0.00391l1.30078,34.66797c0.04164,1.0966 0.92015,1.98256 2.01563,2.03125l28.21289,1.26563c0.02213,0.00049 0.04427,0.00049 0.06641,0c1.14865,0 2.11328,-0.95492 2.11328,-2.10937l-0.00195,-37.81836c0.00033,-0.03126 -0.00033,-0.06253 -0.00195,-0.09375c-0.06833,-1.09475 -1.09101,-1.97461 -2.14453,-1.97461zM37.85352,6.05469l0.00195,35.90234l-26.44141,-1.18555l-1.23633,-32.98437c1.17471,-0.07358 12.93021,-0.80887 20.60156,-1.28906l-0.19922,4.77539c-0.008,0.191 0.14103,0.35333 0.33203,0.36133c0.08,0.003 0.15866,-0.02231 0.22266,-0.07031l2.03125,-1.54101l1.7168,1.35351c0.15,0.119 0.36833,0.09141 0.48633,-0.05859c0.051,-0.064 0.07622,-0.14456 0.07422,-0.22656l-0.16797,-4.875c0.50708,-0.03174 2.43266,-0.153 2.57813,-0.16211zM24.55859,12.0332c-5.069,0 -7.9082,2.75481 -7.9082,6.88281c0,4.139 3.21145,5.94066 5.93945,7.47266c2.016,1.131 3.76563,2.1162 3.76563,3.7832c0,1.1 -0.53761,1.75391 -1.72461,1.75391c-1.546,0 -2.15798,-0.79061 -2.08398,-3.47461c0,-0.581 -5.89617,-0.763 -6.07617,0c-0.457,6.505 3.59637,8.38086 8.23438,8.38086c4.493,0 8.01758,-2.39247 8.01758,-6.73047c0,-4.524 -3.39527,-6.32359 -6.19727,-7.80859c-1.973,-1.046 -3.6543,-1.93763 -3.6543,-3.51562c0,-1.549 1.15003,-1.75391 1.83203,-1.75391c0.72,0 2.01425,0.12658 1.90625,3.01758c0,0.758 5.10311,0.39628 5.78711,-0.13672c0,-5.159 -2.76889,-7.87109 -7.83789,-7.87109z"></path></g></g></svg>